<?xml version="1.0" encoding="iso-8859-1"?>
<!-- Generator: Adobe Illustrator 18.0.0, SVG Export Plug-In . SVG Version: 6.00 Build 0)  -->
<!DOCTYPE svg PUBLIC "-//W3C//DTD SVG 1.1//EN" "http://www.w3.org/Graphics/SVG/1.1/DTD/svg11.dtd">
<svg xmlns="http://www.w3.org/2000/svg" xmlns:xlink="http://www.w3.org/1999/xlink" version="1.1" id="Capa_1" x="0px" y="0px" viewBox="0 0 299 299" style="enable-background:new 0 0 299 299;" xml:space="preserve" width="512px" height="512px">
<g>
	<path d="M165.777,198.642c-2.217,0-3.477,0.18-4.135,0.3v11.15h3.597c4.555,0,7.253-2.278,7.253-5.815   C172.492,200.561,169.975,198.701,165.777,198.642z" fill="#FFFFFF"/>
	<path d="M176.133,68.275c1.257-0.364,2.296-1.196,2.926-2.343c0.631-1.146,0.776-2.469,0.412-3.725   c-0.605-2.081-2.536-3.534-4.697-3.534c-0.458,0-0.919,0.066-1.37,0.197c-1.722,0.5-6.334,2.64-11.196,5.834   c-2.415,1.586-4.201,2.973-5.492,4.107c1.918,0.304,4.53,0.541,7.933,0.541C169.695,69.354,174.333,68.798,176.133,68.275z" fill="#FFFFFF"/>
	<path d="M125.598,58.871c-0.452-0.131-0.913-0.197-1.371-0.197c-2.161,0-4.093,1.453-4.697,3.534   c-0.364,1.256-0.219,2.578,0.412,3.725c0.63,1.146,1.669,1.979,2.925,2.343c1.801,0.522,6.438,1.078,11.486,1.078   c3.402,0,6.015-0.237,7.933-0.541c-1.291-1.135-3.077-2.521-5.492-4.107C131.931,61.511,127.318,59.371,125.598,58.871z" fill="#FFFFFF"/>
	<path d="M128.366,199.002h-0.12c-0.599,2.397-1.199,5.454-1.858,7.793l-2.397,8.571h8.932l-2.517-8.571   C129.685,204.396,128.966,201.399,128.366,199.002z" fill="#FFFFFF"/>
	<path d="M201.45,198.881c-2.039,0-3.357,0.18-4.137,0.36v26.436c0.78,0.18,2.038,0.18,3.178,0.18   c8.271,0.061,13.667-4.494,13.667-14.146C214.219,203.318,209.303,198.881,201.45,198.881z" fill="#FFFFFF"/>
	<path d="M235.666,0H63.334C52.38,0,43.5,8.88,43.5,19.833v259.334C43.5,290.12,52.38,299,63.334,299h172.332   c10.954,0,19.834-8.88,19.834-19.833V19.833C255.5,8.88,246.62,0,235.666,0z M106.271,196.708l-0.009,0.033   c-0.501,1.955-2.449,3.165-4.424,2.75c-1.251-0.262-2.662-0.431-4.229-0.431c-7.254,0-12.888,4.377-12.888,13.369   c0,8.092,4.795,13.188,12.947,13.188c1.369,0,2.811-0.147,4.138-0.385c1.96-0.35,3.839,0.939,4.216,2.895l0.006,0.028   c0.39,2.02-0.92,3.974-2.936,4.382c-1.837,0.372-4.154,0.633-6.803,0.633c-13.968,0-21.16-8.692-21.16-20.201   c0-13.789,9.83-21.462,22.061-21.462c2.394,0,4.497,0.245,6.201,0.597c1.004,0.206,1.88,0.815,2.424,1.685   C106.359,194.659,106.525,195.715,106.271,196.708z M144.605,230.666c-0.882,1.197-2.28,1.904-3.768,1.904   c-2.066,0-3.888-1.354-4.482-3.333l-2.114-7.037h-11.569l-1.966,7.084c-0.539,1.942-2.307,3.286-4.322,3.286   c-1.422,0-2.76-0.674-3.605-1.817c-0.846-1.143-1.1-2.619-0.685-3.979l9.565-31.293c0.602-1.969,2.419-3.313,4.478-3.313h5.073   c2.052,0,3.864,1.336,4.472,3.295l9.627,31.042C145.749,227.924,145.488,229.47,144.605,230.666z M112.049,161.072v-56.445h29.8   v64.433h-21.814C115.624,169.059,112.049,165.483,112.049,161.072z M141.849,76.944V94.56h-35.752   c-2.385,0-4.317-1.933-4.317-4.316V79.459c0-2.384,1.933-4.316,4.317-4.316h12.463c-5.527-2.702-8.487-9.055-6.713-15.166   c1.638-5.639,6.789-9.303,12.38-9.303c1.19,0,2.4,0.166,3.601,0.515c4.754,1.38,15.947,7.535,21.673,13.458   c5.726-5.923,16.919-12.078,21.673-13.458c1.2-0.349,2.41-0.515,3.601-0.515c5.591,0,10.742,3.664,12.38,9.303   c1.774,6.111-1.186,12.464-6.713,15.166h12.463c2.385,0,4.317,1.933,4.317,4.316v10.784c0,2.384-1.933,4.316-4.317,4.316h-35.752   V76.944c-2.968-0.351-5.654-0.949-7.651-1.863C147.503,75.995,144.815,76.594,141.849,76.944z M179.805,221.182   c0.505,1.827,1.01,3.769,1.483,5.541c0.373,1.396,0.076,2.884-0.804,4.029c-0.879,1.145-2.24,1.819-3.685,1.819h-0.05   c-1.916,0-3.602-1.256-4.154-3.09c-0.484-1.611-1.041-3.74-1.663-6.321c-1.078-5.035-2.816-6.415-6.534-6.475h-2.757v11.36   c0,2.499-2.026,4.525-4.525,4.525c-2.5,0-4.526-2.026-4.526-4.526v-31.186c0-2.428,1.855-4.456,4.274-4.665   c2.333-0.201,5.03-0.326,7.894-0.326c5.995,0,10.19,0.898,13.068,3.177c2.399,1.918,3.717,4.736,3.717,8.452   c0,5.155-3.657,8.693-7.134,9.951v0.18C177.227,214.767,178.785,217.465,179.805,221.182z M186.951,161.072   c0,4.411-3.575,7.987-7.986,7.987h-21.813v-64.433h29.8V161.072z M217.155,227.775c-4.256,3.537-10.729,5.216-18.643,5.216   c-2.316,0-4.302-0.071-5.993-0.18c-2.466-0.158-4.378-2.201-4.378-4.673v-31.279c0-2.428,1.856-4.456,4.275-4.665   c2.479-0.213,5.23-0.326,8.073-0.326c7.673,0,12.649,1.378,16.545,4.315c4.196,3.118,6.834,8.093,6.834,15.228   C223.869,219.143,221.052,224.479,217.155,227.775z" fill="#FFFFFF"/>
</g>
<g>
</g>
<g>
</g>
<g>
</g>
<g>
</g>
<g>
</g>
<g>
</g>
<g>
</g>
<g>
</g>
<g>
</g>
<g>
</g>
<g>
</g>
<g>
</g>
<g>
</g>
<g>
</g>
<g>
</g>
</svg>
